<svg width="24" height="24" viewBox="0 0 24 24" fill="none" xmlns="http://www.w3.org/2000/svg">
<path d="M13.2947 8.65926L13.2947 8.65926L13.2944 8.6564C13.2715 8.4618 13.1779 8.28238 13.0315 8.15217C12.8851 8.02196 12.696 7.95003 12.5 7.95C12.2878 7.95 12.0843 8.03429 11.9343 8.18431C11.7843 8.33434 11.7 8.53783 11.7 8.75V12.5H11.6999L11.7001 12.5034L11.7069 12.6017L11.7068 12.6017L11.7072 12.6048C11.7302 12.7792 11.81 12.9411 11.9344 13.0656L11.9344 13.0656L14.1844 15.3156L14.1843 15.3157L14.1867 15.3177L14.2572 15.38L14.2571 15.3801L14.2597 15.3821C14.4205 15.5064 14.6225 15.5648 14.8249 15.5456C15.0272 15.5263 15.2146 15.4307 15.3491 15.2783C15.4835 15.1258 15.5549 14.9279 15.5486 14.7248C15.5424 14.5216 15.4591 14.3284 15.3157 14.1845L15.3156 14.1844L13.3 12.1688V8.75H13.3001L13.2999 8.74701L13.2947 8.65926ZM20.05 12.5C20.05 8.33014 16.6699 4.95 12.5 4.95C8.33014 4.95 4.95 8.33014 4.95 12.5C4.95 16.6699 8.33014 20.05 12.5 20.05C16.6699 20.05 20.05 16.6699 20.05 12.5ZM8.29271 8.29271C9.40856 7.17687 10.922 6.55 12.5 6.55C14.078 6.55 15.5914 7.17687 16.7073 8.29271C17.8231 9.40856 18.45 10.922 18.45 12.5C18.45 14.078 17.8231 15.5914 16.7073 16.7073C15.5914 17.8231 14.078 18.45 12.5 18.45C10.922 18.45 9.40856 17.8231 8.29271 16.7073C7.17687 15.5914 6.55 14.078 6.55 12.5C6.55 10.922 7.17687 9.40856 8.29271 8.29271Z" fill="#51A65F" stroke="#51A65F" stroke-width="0.1"/>
</svg>
