<svg width="24" height="24" viewBox="0 0 24 24" fill="none" xmlns="http://www.w3.org/2000/svg">
<circle cx="8.99686" cy="5.23123" r="4.3245" stroke="#51A65F" stroke-width="1.81346"/>
<rect x="2.25634" y="12.6395" width="14.2826" height="9.4538" rx="3.17692" stroke="#51A65F" stroke-width="1.81346"/>
<path d="M21.5478 13.412L21.5478 13.412L21.5454 13.4078L20.8809 12.2601C20.7647 12.0566 20.5777 11.9028 20.3554 11.8281L20.1629 12.4011L20.3554 11.8281C20.1328 11.7533 19.8905 11.7631 19.6747 11.8555L19.2803 12.0225L19.2269 11.5972C19.1682 11.1166 18.758 10.7536 18.2746 10.7536H16.9471C16.4639 10.7536 16.0504 11.1129 15.9912 11.5973L15.9378 12.0225L15.544 11.8558C15.097 11.6634 14.5779 11.839 14.3371 12.2602L13.6723 13.412L13.6723 13.412L13.6703 13.4156C13.4328 13.8336 13.5381 14.3602 13.9181 14.6547L13.9181 14.6547L13.9232 14.6586L14.2667 14.919L13.9242 15.1786C13.532 15.4739 13.4361 16.0101 13.6703 16.4223L13.6703 16.4224L13.6727 16.4266L14.3374 17.5746C14.5783 17.9955 15.0972 18.1709 15.544 17.9786L15.9378 17.8119L15.9912 18.2371C16.0499 18.7178 16.4601 19.0808 16.9435 19.0808H18.271C18.7544 19.0808 19.1646 18.7178 19.2233 18.2371L19.2767 17.8119L19.6705 17.9786C20.1173 18.1709 20.6363 17.9955 20.8772 17.5746L21.5418 16.4266L21.5418 16.4266L21.5442 16.4223C21.7817 16.0043 21.6764 15.4778 21.2964 15.1832L21.2964 15.1832L21.2913 15.1793L20.9473 14.9185L21.2939 14.6558C21.6861 14.3605 21.782 13.8243 21.5478 13.412ZM17.6233 15.5584C17.2702 15.5584 16.9821 15.2702 16.9821 14.9172C16.9821 14.5641 17.2702 14.276 17.6233 14.276C17.9763 14.276 18.2645 14.5641 18.2645 14.9172C18.2645 15.2702 17.9763 15.5584 17.6233 15.5584Z" fill="#1F1F1F" stroke="#51A65F" stroke-width="1.20898"/>
</svg>
