<svg width="14" height="13" viewBox="0 0 14 13" fill="none" xmlns="http://www.w3.org/2000/svg">
<path d="M6.1566 0.902329C6.30486 0.625765 6.19306 0.28592 5.90868 0.142951C5.62431 -1.8023e-05 5.26944 0.107795 5.12118 0.382015L2.85833 4.57969H0.777778C0.347569 4.57969 0 4.91484 0 5.32969C0 5.74453 0.347569 6.07969 0.777778 6.07969L2.03924 10.943C2.21181 11.611 2.83403 12.0797 3.54861 12.0797H10.4514C11.166 12.0797 11.7882 11.611 11.9608 10.943L13.2222 6.07969C13.6524 6.07969 14 5.74453 14 5.32969C14 4.91484 13.6524 4.57969 13.2222 4.57969H11.1417L8.87882 0.382015C8.73056 0.107795 8.37813 -1.8023e-05 8.09132 0.142951C7.80451 0.28592 7.69514 0.625765 7.8434 0.902329L9.82674 4.57969H4.17326L6.1566 0.902329ZM4.66667 7.20469V9.4547C4.66667 9.66095 4.49167 9.8297 4.27778 9.8297C4.06389 9.8297 3.88889 9.66095 3.88889 9.4547V7.20469C3.88889 6.99844 4.06389 6.82969 4.27778 6.82969C4.49167 6.82969 4.66667 6.99844 4.66667 7.20469ZM7 6.82969C7.21389 6.82969 7.38889 6.99844 7.38889 7.20469V9.4547C7.38889 9.66095 7.21389 9.8297 7 9.8297C6.78611 9.8297 6.61111 9.66095 6.61111 9.4547V7.20469C6.61111 6.99844 6.78611 6.82969 7 6.82969ZM10.1111 7.20469V9.4547C10.1111 9.66095 9.93611 9.8297 9.72222 9.8297C9.50833 9.8297 9.33333 9.66095 9.33333 9.4547V7.20469C9.33333 6.99844 9.50833 6.82969 9.72222 6.82969C9.93611 6.82969 10.1111 6.99844 10.1111 7.20469Z" fill="white"/>
</svg>
