<svg width="31" height="28" viewBox="0 0 31 28" fill="none" xmlns="http://www.w3.org/2000/svg">
<path d="M13.5696 2.30894C13.8964 1.6768 13.65 0.900013 13.0232 0.573227C12.3964 0.246441 11.6143 0.49287 11.2875 1.11966L6.3 10.7143H1.71429C0.766071 10.7143 0 11.4804 0 12.4286C0 13.3768 0.766071 14.1429 1.71429 14.1429L4.49464 25.2589C4.875 26.7857 6.24643 27.8572 7.82143 27.8572H23.0357C24.6107 27.8572 25.9821 26.7857 26.3625 25.2589L29.1429 14.1429C30.0911 14.1429 30.8571 13.3768 30.8571 12.4286C30.8571 11.4804 30.0911 10.7143 29.1429 10.7143H24.5571L19.5696 1.11966C19.2429 0.49287 18.4661 0.246441 17.8339 0.573227C17.2018 0.900013 16.9607 1.6768 17.2875 2.30894L21.6589 10.7143H9.19821L13.5696 2.30894ZM10.2857 16.7143V21.8572C10.2857 22.3286 9.9 22.7143 9.42857 22.7143C8.95714 22.7143 8.57143 22.3286 8.57143 21.8572V16.7143C8.57143 16.2429 8.95714 15.8572 9.42857 15.8572C9.9 15.8572 10.2857 16.2429 10.2857 16.7143ZM15.4286 15.8572C15.9 15.8572 16.2857 16.2429 16.2857 16.7143V21.8572C16.2857 22.3286 15.9 22.7143 15.4286 22.7143C14.9571 22.7143 14.5714 22.3286 14.5714 21.8572V16.7143C14.5714 16.2429 14.9571 15.8572 15.4286 15.8572ZM22.2857 16.7143V21.8572C22.2857 22.3286 21.9 22.7143 21.4286 22.7143C20.9571 22.7143 20.5714 22.3286 20.5714 21.8572V16.7143C20.5714 16.2429 20.9571 15.8572 21.4286 15.8572C21.9 15.8572 22.2857 16.2429 22.2857 16.7143Z" fill="#51A65F"/>
</svg>
