<svg width="24" height="25" viewBox="0 0 24 25" fill="none" xmlns="http://www.w3.org/2000/svg">
<path d="M12.0764 17.516L17.9058 11.6875L17.9052 11.6869L18.0115 11.5808C18.5971 10.9962 18.9259 10.2031 18.9259 9.37601C18.9259 8.54872 18.5972 7.75531 18.0123 7.17032C17.4273 6.58535 16.6339 6.25671 15.8066 6.2567L12.0764 17.516ZM12.0764 17.516L6.24631 11.6869L6.24635 11.6869L6.14022 11.5809L6.14018 11.5808C6.13958 11.5802 6.13898 11.5796 6.13837 11.579C5.84964 11.2901 5.62138 10.9471 5.46473 10.5693C5.30784 10.191 5.22701 9.78555 5.22685 9.37601L12.0764 17.516ZM12.446 19.0722C12.4125 19.0935 12.3771 19.112 12.3402 19.1273C12.2566 19.162 12.1669 19.1798 12.0764 19.1798C11.9858 19.1798 11.8962 19.162 11.8125 19.1273C11.7756 19.112 11.7403 19.0935 11.7068 19.0722L11.6952 19.0838L11.5901 18.9788C11.5897 18.9784 11.5893 18.978 11.589 18.9776L11.589 18.9776L5.27284 12.6604L5.16677 12.5543C5.16659 12.5541 5.16641 12.554 5.16623 12.5538L5.06071 12.4483L5.06247 12.4465C4.31866 11.6514 3.88878 10.6137 3.8525 9.52601H3.85V9.37601V9.22601H3.8525C3.89045 8.088 4.35912 7.00452 5.1669 6.19674C5.97467 5.38897 7.05815 4.9203 8.19616 4.88235V4.87982L8.34616 4.87985H8.34619H8.49616V4.88237C9.58392 4.91885 10.6218 5.34884 11.4166 6.09232L11.4184 6.0906L11.5215 6.19364C11.5225 6.19461 11.5234 6.19559 11.5244 6.19656C11.5244 6.19658 11.5245 6.19659 11.5245 6.19661L12.0764 6.74793L12.6283 6.19662C12.6283 6.1966 12.6283 6.19658 12.6283 6.19656C12.6294 6.19547 12.6305 6.19438 12.6316 6.19329L12.7344 6.0906L12.7361 6.09232C13.5312 5.3485 14.5689 4.91863 15.6566 4.88235V4.87985H15.8066H15.9566V4.88235C17.0946 4.9203 18.1781 5.38897 18.9858 6.19674C19.7936 7.00451 20.2623 8.08798 20.3002 9.22601H20.3028L20.3027 9.37604V9.52601H20.3002C20.2637 10.6138 19.8337 11.6516 19.0903 12.4465L19.092 12.4483L18.9861 12.5542C18.9861 12.5542 18.986 12.5543 18.986 12.5543L18.88 12.6603L12.5638 18.9776L12.446 19.0722ZM12.446 19.0722L12.4576 19.0838L12.5626 18.9788M12.446 19.0722L12.5626 18.9788M12.5626 18.9788C12.563 18.9784 12.5633 18.9781 12.5636 18.9777L12.5626 18.9788ZM5.22685 9.37595C5.22686 8.54868 5.5555 7.75529 6.14047 7.17032C6.72546 6.58534 7.51887 6.2567 8.34616 6.2567C9.17321 6.2567 9.96634 6.58546 10.5509 7.17106L10.6571 7.27739L10.6576 7.27681L11.5889 8.20905L11.589 8.20911C11.5892 8.20936 11.5895 8.20962 11.5897 8.20988L11.6951 8.31536L11.7068 8.30372C11.7403 8.32505 11.7756 8.34349 11.8125 8.35879C11.8962 8.39349 11.9858 8.41136 12.0764 8.41136C12.1669 8.41136 12.2566 8.39349 12.3402 8.35879C12.3771 8.34349 12.4125 8.32505 12.446 8.30372L12.4576 8.31536L12.563 8.20984C12.5633 8.20962 12.5635 8.2094 12.5637 8.20918L5.22685 9.37595ZM12.5638 8.2091L13.6014 7.17036L13.6017 7.17011C14.1866 6.5855 14.9796 6.25697 15.8066 6.2567L12.5638 8.2091Z" fill="#51A65F" stroke="#51A65F" stroke-width="0.3"/>
</svg>
