<svg width="66" height="58" viewBox="0 0 66 58" fill="none" xmlns="http://www.w3.org/2000/svg">
<g clip-path="url(#clip0_386_3721)">
<path d="M29.0959 3.94855C29.7821 2.62105 29.2646 0.989798 27.9484 0.303548C26.6321 -0.382702 24.9896 0.134798 24.3034 1.45105L13.8296 21.5998H4.19961C2.20836 21.5998 0.599609 23.2085 0.599609 25.1998C0.599609 27.191 2.20836 28.7998 4.19961 28.7998L10.0384 52.1435C10.8371 55.3498 13.7171 57.5998 17.0246 57.5998H48.9746C52.2821 57.5998 55.1621 55.3498 55.9609 52.1435L61.7996 28.7998C63.7909 28.7998 65.3996 27.191 65.3996 25.1998C65.3996 23.2085 63.7909 21.5998 61.7996 21.5998H52.1696L41.6959 1.45105C41.0096 0.134798 39.3784 -0.382702 38.0509 0.303548C36.7234 0.989798 36.2171 2.62105 36.9034 3.94855L46.0834 21.5998H19.9159L29.0959 3.94855Z" fill="#595959"/>
<path d="M32.4065 51.4423C30.9256 51.4423 29.6086 51.1408 28.4557 50.5379C27.3027 49.935 26.3242 49.0993 25.5203 48.031C24.727 46.9626 24.1188 45.7303 23.6957 44.334C23.2831 42.9378 23.0769 41.4463 23.0769 39.8596C23.0769 38.2624 23.2831 36.7656 23.6957 35.3694C24.1188 33.9731 24.727 32.7461 25.5203 31.6883C26.3242 30.62 27.3027 29.7843 28.4557 29.1814C29.6086 28.5784 30.9256 28.277 32.4065 28.277C33.8768 28.277 35.1884 28.5784 36.3414 29.1814C37.4944 29.7843 38.4675 30.62 39.2609 31.6883C40.0648 32.7461 40.6783 33.9731 41.1014 35.3694C41.5245 36.7656 41.7361 38.2624 41.7361 39.8596C41.7361 41.4463 41.5245 42.9378 41.1014 44.334C40.6783 45.7303 40.0648 46.9626 39.2609 48.031C38.4675 49.0993 37.4944 49.935 36.3414 50.5379C35.1884 51.1408 33.8768 51.4423 32.4065 51.4423ZM32.4065 47.3804C33.1363 47.3804 33.7974 47.2165 34.3898 46.8886C34.9822 46.5501 35.4899 46.0635 35.913 45.4288C36.3467 44.7836 36.6746 43.9956 36.8967 43.0647C37.1294 42.1233 37.2458 41.0549 37.2458 39.8596C37.2458 38.2624 37.0448 36.9032 36.6429 35.7819C36.2409 34.6501 35.675 33.7933 34.9451 33.2115C34.2258 32.6297 33.3796 32.3388 32.4065 32.3388C31.6766 32.3388 31.0155 32.5081 30.4231 32.8466C29.8308 33.1745 29.3178 33.6611 28.8841 34.3063C28.461 34.941 28.133 35.7237 27.9003 36.6546C27.6782 37.5854 27.5671 38.6538 27.5671 39.8596C27.5671 41.4569 27.7681 42.8161 28.1701 43.9374C28.572 45.0586 29.1326 45.9154 29.8519 46.5078C30.5818 47.0896 31.4333 47.3804 32.4065 47.3804Z" fill="#111111"/>
</g>
<defs>
<clipPath id="clip0_386_3721">
<rect width="64.8" height="57.6" fill="white" transform="translate(0.599609)"/>
</clipPath>
</defs>
</svg>
