<svg width="24" height="23" viewBox="0 0 24 23" fill="none" xmlns="http://www.w3.org/2000/svg">
<path d="M6.54224 7.31864C6.43981 8.41114 6.36794 10.3446 7.01302 11.1675C7.01302 11.1675 6.70934 9.04364 9.43161 6.37887C10.5277 5.30614 10.7811 3.84708 10.3983 2.75278C10.1809 2.13286 9.7838 1.62075 9.4388 1.26317C9.23755 1.05294 9.39208 0.706139 9.68497 0.718717C11.4567 0.797779 14.3281 1.29012 15.5482 4.352C16.0836 5.69606 16.1232 7.08505 15.868 8.49739C15.7063 9.39942 15.1313 11.4047 16.443 11.6509C17.3792 11.827 17.832 11.0831 18.035 10.5476C18.1195 10.3248 18.4124 10.2691 18.5705 10.447C20.1518 12.2457 20.2865 14.3642 19.9595 16.188C19.327 19.7135 15.7566 22.2794 12.2096 22.2794C7.77848 22.2794 4.25122 19.744 3.33661 15.1548C2.96825 13.3022 3.15513 9.63661 6.01216 7.04911C6.22419 6.85505 6.57099 7.02755 6.54224 7.31864Z" fill="url(#paint0_radial_93_2833)"/>
<path d="M13.829 13.9114C12.1956 11.809 12.9269 9.41019 13.3276 8.45425C13.3815 8.32847 13.2378 8.20987 13.1246 8.28714C12.422 8.76511 10.9827 9.88995 10.3125 11.473C9.40506 13.6131 9.46975 14.6607 10.007 15.94C10.3305 16.7109 9.95491 16.8744 9.76624 16.9032C9.58296 16.9319 9.41405 16.8097 9.27928 16.6821C8.89159 16.3099 8.61531 15.837 8.48147 15.3165C8.45272 15.2051 8.30717 15.1746 8.24069 15.2662C7.73756 15.9616 7.47702 17.0775 7.46444 17.8663C7.42491 20.3046 9.4392 22.2812 11.8758 22.2812C14.9466 22.2812 17.1837 18.8851 15.4192 16.046C14.9071 15.2195 14.4255 14.6786 13.829 13.9114Z" fill="url(#paint1_radial_93_2833)"/>
<defs>
<radialGradient id="paint0_radial_93_2833" cx="0" cy="0" r="1" gradientUnits="userSpaceOnUse" gradientTransform="translate(11.3319 22.3353) rotate(-179.751) scale(12.6837 20.8115)">
<stop offset="0.314" stop-color="#FF9800"/>
<stop offset="0.662" stop-color="#FF6D00"/>
<stop offset="0.972" stop-color="#F44336"/>
</radialGradient>
<radialGradient id="paint1_radial_93_2833" cx="0" cy="0" r="1" gradientUnits="userSpaceOnUse" gradientTransform="translate(12.0447 9.71357) rotate(90.5787) scale(13.2711 9.98748)">
<stop offset="0.214" stop-color="#FFF176"/>
<stop offset="0.328" stop-color="#FFF27D"/>
<stop offset="0.487" stop-color="#FFF48F"/>
<stop offset="0.672" stop-color="#FFF7AD"/>
<stop offset="0.793" stop-color="#FFF9C4"/>
<stop offset="0.822" stop-color="#FFF8BD" stop-opacity="0.804"/>
<stop offset="0.863" stop-color="#FFF6AB" stop-opacity="0.529"/>
<stop offset="0.91" stop-color="#FFF38D" stop-opacity="0.209"/>
<stop offset="0.941" stop-color="#FFF176" stop-opacity="0"/>
</radialGradient>
</defs>
</svg>
