<svg width="25" height="24" viewBox="0 0 25 24" fill="none" xmlns="http://www.w3.org/2000/svg">
<path d="M12.9688 3C9.39746 3 6.5 5.75775 6.5 9.1543C6.5 13.0625 10.8125 19.2559 12.396 21.3951C12.4617 21.4854 12.5479 21.5588 12.6474 21.6095C12.747 21.6602 12.8571 21.6866 12.9688 21.6866C13.0804 21.6866 13.1905 21.6602 13.2901 21.6095C13.3896 21.5588 13.4758 21.4854 13.5415 21.3951C15.125 19.2568 19.4375 13.0656 19.4375 9.1543C19.4375 5.75775 16.54 3 12.9688 3Z" stroke="#51A65F" stroke-width="2" stroke-linecap="round" stroke-linejoin="round"/>
<path d="M12.9688 11.625C14.1596 11.625 15.125 10.6596 15.125 9.46875C15.125 8.27789 14.1596 7.3125 12.9688 7.3125C11.7779 7.3125 10.8125 8.27789 10.8125 9.46875C10.8125 10.6596 11.7779 11.625 12.9688 11.625Z" stroke="#51A65F" stroke-width="2" stroke-linecap="round" stroke-linejoin="round"/>
</svg>
