<svg width="24" height="25" viewBox="0 0 24 25" fill="none" xmlns="http://www.w3.org/2000/svg">
<path d="M2.29248 20.6694L2.29237 20.6692C1.92543 20.3268 1.73824 19.9059 1.73824 19.4148V10.6448C1.73824 10.1544 1.92547 9.73361 2.29225 9.39056L2.29237 9.39045C2.65893 9.04833 3.10477 8.87747 3.62098 8.87747H4.95253V7.02985C4.95253 5.87262 5.3865 4.88728 6.24803 4.08249C7.10919 3.27805 8.15984 2.8768 9.39062 2.87747L2.29248 20.6694ZM2.29248 20.6694C2.65966 21.0113 3.10543 21.1822 3.62098 21.1822H15.1603C15.6765 21.1822 16.1223 21.0114 16.4889 20.6692L16.489 20.6691C16.8558 20.3261 17.043 19.9053 17.043 19.4148V10.6448C17.043 10.1538 16.8558 9.73293 16.4889 9.39045L16.4888 9.39034C16.1216 9.04836 15.6758 8.87747 15.1603 8.87747H13.8287M2.29248 20.6694L13.8287 8.87747M13.8287 8.87747V7.02994V7.02985V8.87747ZM15.1603 19.8775H3.62098C3.46175 19.8775 3.34284 19.8308 3.25138 19.7454C3.16074 19.6608 3.11443 19.5548 3.11443 19.4148V10.6448C3.11443 10.5049 3.16074 10.3988 3.25138 10.3142C3.34284 10.2289 3.46175 10.1822 3.62098 10.1822H15.1603C15.3195 10.1822 15.4384 10.2289 15.5299 10.3142C15.6205 10.3988 15.6668 10.5049 15.6668 10.6448V19.4148C15.6668 19.5548 15.6205 19.6608 15.5299 19.7454C15.4384 19.8308 15.3195 19.8775 15.1603 19.8775ZM9.39062 16.6822C9.87851 16.6822 10.2972 16.5248 10.6368 16.2072L10.9978 15.0298C10.9978 14.6078 10.8428 14.2525 10.5328 13.9638L10.6369 13.8526C10.6368 13.8525 10.6368 13.8525 10.6368 13.8525C10.2972 13.5349 9.87851 13.3775 9.39062 13.3775C8.9028 13.3775 8.48411 13.5349 8.14461 13.8524C7.8038 14.1697 7.6311 14.5654 7.6311 15.0298C7.6311 15.4943 7.8038 15.89 8.14461 16.2073C8.48411 16.5248 8.9028 16.6822 9.39062 16.6822ZM12.4525 8.87747H6.32872V7.02985C6.32872 6.23997 6.62278 5.57161 7.21781 5.01625C7.81324 4.46051 8.53448 4.18223 9.39062 4.18223C10.2468 4.18223 10.968 4.46051 11.5634 5.01625C12.1585 5.57161 12.4525 6.23997 12.4525 7.02985V8.87747Z" fill="#51A65F" stroke="#51A65F" stroke-width="0.304762"/>
</svg>
