<svg width="18" height="18" viewBox="0 0 18 18" fill="none" xmlns="http://www.w3.org/2000/svg">
<path d="M16.8179 15.9379L12.9175 12.0383C14.0242 10.7054 14.5748 8.99725 14.4548 7.26892C14.3348 5.5406 13.5534 3.92498 12.2731 2.75783C10.9927 1.59068 9.31188 0.961769 7.57985 1.0018C5.84783 1.04183 4.19783 1.74772 2.97278 2.97278C1.74772 4.19783 1.04183 5.84783 1.0018 7.57985C0.961769 9.31188 1.59068 10.9927 2.75783 12.2731C3.92498 13.5534 5.5406 14.3348 7.26893 14.4548C8.99725 14.5748 10.7054 14.0242 12.0383 12.9175L15.9387 16.8179C15.9964 16.8756 16.065 16.9214 16.1404 16.9527C16.2158 16.9839 16.2967 17 16.3783 17C16.46 17 16.5408 16.9839 16.6162 16.9527C16.6917 16.9214 16.7602 16.8756 16.8179 16.8179C16.8756 16.7602 16.9214 16.6916 16.9527 16.6162C16.9839 16.5408 17 16.46 17 16.3783C17 16.2967 16.9839 16.2158 16.9527 16.1404C16.9214 16.065 16.8756 15.9956 16.8179 15.9379ZM2.26234 7.74456C2.26234 6.66015 2.58389 5.6001 3.18634 4.69844C3.78878 3.79678 4.64507 3.094 5.64691 2.67898C6.64875 2.26396 7.75116 2.15533 8.81474 2.36683C9.87832 2.57833 10.8553 3.10046 11.6222 3.86719C12.389 4.63393 12.9113 5.61083 13.1229 6.67438C13.3346 7.73793 13.2261 8.84036 12.8112 9.84226C12.3964 10.8442 11.6937 11.7006 10.7921 12.3031C9.89057 12.9057 8.83056 13.2274 7.74615 13.2276C6.29235 13.2261 4.8985 12.648 3.87043 11.62C2.84236 10.5921 2.26403 9.19836 2.26234 7.74456Z" fill="white" stroke="white"/>
</svg>
