<svg width="22" height="20" viewBox="0 0 22 20" fill="none" xmlns="http://www.w3.org/2000/svg">
<path d="M10.2055 1.19493C10.5118 0.288437 11.7939 0.288438 12.1002 1.19493L13.8418 6.34878C13.9791 6.75512 14.3602 7.02864 14.7891 7.02864H20.339C21.3172 7.02864 21.7136 8.28821 20.9117 8.84842L16.4901 11.9373C16.1258 12.1918 15.9732 12.6562 16.1154 13.0772L17.8201 18.1219C18.1291 19.0363 17.0913 19.8145 16.3 19.2618L11.7255 16.066C11.3815 15.8257 10.9241 15.8257 10.5801 16.066L6.00564 19.2618C5.21435 19.8145 4.17656 19.0363 4.48557 18.1219L6.19024 13.0772C6.3325 12.6562 6.17986 12.1918 5.81555 11.9373L1.39399 8.84842C0.59209 8.28821 0.988482 7.02864 1.96668 7.02864H7.51651C7.94543 7.02864 8.32658 6.75512 8.46389 6.34878L10.2055 1.19493Z" fill="#FF6D00"/>
</svg>
